<svg width="40" height="40" viewBox="0 0 40 40" fill="none" xmlns="http://www.w3.org/2000/svg">
<g opacity="0.8">
<path d="M8.79468 5.74402H4.74976V8.44316H8.79468V5.74402Z" fill="#48C1E1"/>
<path d="M3.49635 27.6239C3.51705 27.6154 3.53314 27.5984 3.54041 27.5772C3.54775 27.556 3.54557 27.5327 3.53463 27.5133C3.50111 27.4541 3.48416 27.3959 3.48416 27.3404C3.48416 26.9098 4.43955 26.4488 5.86197 26.4488C6.31971 26.4488 6.76564 26.4996 7.15158 26.596C7.15783 26.5975 7.16416 26.5983 7.17049 26.5983C7.19096 26.5983 7.21088 26.5903 7.22572 26.5754C7.24518 26.556 7.25299 26.5278 7.24627 26.5013C6.99807 25.5106 6.85596 24.4924 6.8226 23.4518C6.82213 23.4397 6.82135 23.4276 6.82096 23.4154C6.8165 23.2669 6.81416 23.1179 6.81416 22.9685C6.81416 22.7884 6.96033 22.6418 7.1401 22.6418H7.84596C7.86814 22.6418 7.88939 22.6324 7.90416 22.6158C7.91893 22.5992 7.92603 22.5771 7.92361 22.555C7.91205 22.4515 7.90666 22.365 7.90666 22.2827C7.90666 21.182 8.61057 20.2206 9.6583 19.8905C9.67986 19.8837 9.69744 19.8678 9.70643 19.847C9.71549 19.8263 9.71502 19.8026 9.70518 19.7822C9.61002 19.5837 9.5433 19.3762 9.50674 19.1656C9.32424 18.1124 9.87525 17.0638 10.8466 16.6156C10.8833 16.5986 10.901 16.5564 10.8874 16.5183C10.8418 16.3906 10.8073 16.2595 10.7846 16.1285C10.6365 15.274 10.9707 14.4452 11.5898 13.9205V10.5654C11.5898 9.33025 10.5816 8.3197 9.34916 8.3197H4.19611C2.96385 8.3197 1.95557 9.33025 1.95557 10.5654V28.5558C2.40455 28.1774 2.92213 27.8605 3.49635 27.6239Z" fill="#A2DFF9"/>
<path d="M9.65838 19.8897C9.67994 19.8829 9.69752 19.867 9.7065 19.8462C9.71557 19.8255 9.7151 19.8018 9.70525 19.7814C9.6101 19.5829 9.54338 19.3754 9.50682 19.1648C9.32432 18.1116 9.87533 17.063 10.8467 16.6148C10.8834 16.5978 10.9011 16.5556 10.8875 16.5175C10.8419 16.3898 10.8074 16.2587 10.7847 16.1277C10.6366 15.2732 10.9708 14.4444 11.5899 13.9197V12.4091H1.95557V20.7217H8.44924C8.75228 20.3397 9.16674 20.0446 9.65838 19.8897Z" fill="#046699"/>
<path d="M18.9475 14.7065C18.9701 14.8369 18.9817 14.972 18.9819 15.1083C18.982 15.1488 19.0129 15.1825 19.0532 15.1861C20.0533 15.274 20.8894 15.9864 21.1341 16.959C21.1408 16.9858 21.1613 17.007 21.1878 17.0148C21.1951 17.017 21.2025 17.018 21.2099 17.018C21.2294 17.018 21.2485 17.0107 21.2632 16.997C21.6707 16.6169 22.1778 16.3885 22.7298 16.3365C22.7689 16.3328 22.7993 16.3005 22.8005 16.2612C22.836 15.1657 23.2815 14.1355 24.0549 13.3604C24.0711 13.3442 24.088 13.3291 24.1044 13.3132C23.9333 12.2224 23.4306 11.1742 22.5937 10.3355C22.4291 10.1706 22.1623 10.1705 21.9975 10.3355L18.5681 13.7727C18.7553 14.0457 18.8876 14.3616 18.9475 14.7065Z" fill="#EF5050"/>
<path d="M21.1347 16.9586C21.1414 16.9854 21.1619 17.0067 21.1884 17.0145C21.1957 17.0167 21.2031 17.0177 21.2105 17.0177C21.23 17.0177 21.2491 17.0104 21.2638 16.9967C21.4629 16.811 21.686 16.6622 21.9263 16.5518C21.8994 16.4622 21.8507 16.3776 21.78 16.3067L21.2112 15.7365C20.9828 15.5074 20.6118 15.5069 20.3826 15.7354C20.3809 15.7371 20.3796 15.7389 20.3779 15.7406C20.7423 16.0513 21.0125 16.4725 21.1347 16.9586Z" fill="#C0272D"/>
<path d="M22.353 15.2244H21.5486C21.2249 15.2244 20.9626 14.962 20.9626 14.6384C20.9626 14.3148 21.2249 14.0525 21.5486 14.0525H22.353C22.6766 14.0525 22.9389 14.3148 22.9389 14.6384C22.9389 14.9621 22.6766 15.2244 22.353 15.2244Z" fill="#C0272D"/>
<path d="M21.4351 13.6058C21.2853 13.6058 21.1355 13.5487 21.0211 13.4346C20.7921 13.206 20.7918 12.835 21.0203 12.6059L21.5893 12.0358C21.8179 11.8068 22.189 11.8064 22.4179 12.035C22.647 12.2636 22.6473 12.6346 22.4188 12.8636L21.8497 13.4338C21.7354 13.5483 21.5852 13.6058 21.4351 13.6058Z" fill="#C0272D"/>
<path d="M28.7811 12.4112C28.7742 12.3933 28.7635 12.3774 28.7502 12.364C28.7369 12.3507 28.721 12.3401 28.7031 12.333C27.0804 11.6867 25.2343 12.0685 23.9999 13.3056C23.1799 14.1275 22.7371 15.22 22.7209 16.3377C22.802 16.3298 22.8843 16.3255 22.9674 16.3255C24.1826 16.3255 25.1977 17.1981 25.423 18.3509C26.3091 18.2065 27.1481 17.7894 27.8109 17.1251C29.0452 15.8879 29.426 14.0376 28.7811 12.4112Z" fill="#89C947"/>
<path d="M26.6763 14.443C26.4472 14.2144 26.0762 14.2148 25.8477 14.444L23.8208 16.4755C24.2034 16.6149 24.5426 16.8454 24.8125 17.1406L26.6773 15.2716C26.9059 15.0426 26.9054 14.6715 26.6763 14.443Z" fill="#D5E962"/>
<path d="M11.9387 22.5845C11.6771 22.1208 11.5114 21.6123 11.4482 21.089C10.6868 20.9645 10.0404 20.4768 9.70918 19.7922C8.62449 20.0983 7.8291 21.0965 7.8291 22.2815C7.8291 22.3841 7.83691 22.4849 7.84855 22.5844H11.9387V22.5845Z" fill="#FFC502"/>
<path d="M29.6242 19.1206C29.6446 19.2387 29.655 19.3604 29.6551 19.4822C29.6552 19.5227 29.6861 19.5564 29.7264 19.56C30.0435 19.5879 30.3458 19.6862 30.625 19.8521C30.6374 19.8595 30.6511 19.8631 30.6649 19.8631C30.6867 19.8631 30.7085 19.8539 30.7238 19.8363C30.7904 19.76 30.8475 19.6982 30.9038 19.6419C31.3753 19.1692 31.9456 18.8319 32.5674 18.6479C32.6257 18.432 32.6574 18.2051 32.6574 17.9707C32.6574 16.5423 31.5021 15.3843 30.0768 15.3843C28.8614 15.3843 27.8427 16.2269 27.5691 17.3608C28.5882 17.3785 29.4494 18.1123 29.6242 19.1206Z" fill="#FFC502"/>
<path d="M31.6324 21.3134C31.7079 21.7487 31.6479 22.1873 31.4593 22.5848H34.7752C35.5583 21.4852 35.7476 20.05 35.2384 18.7656C35.2319 18.7493 35.2222 18.7346 35.21 18.7223C35.1977 18.7101 35.183 18.7003 35.1668 18.6938C33.6764 18.1002 31.9811 18.4509 30.8474 19.587C30.7646 19.6701 30.6872 19.7568 30.6128 19.8455C31.139 20.1546 31.5232 20.6831 31.6324 21.3134Z" fill="#89C947"/>
<path d="M31.4587 22.5853H32.1833L33.3391 21.427C33.5676 21.198 33.5672 20.8269 33.338 20.5984C33.109 20.3698 32.738 20.3702 32.5094 20.5994L31.6514 21.4594C31.6917 21.8463 31.6263 22.232 31.4587 22.5853Z" fill="#D5E962"/>
<path d="M25.465 18.992H25.4436C25.4435 18.9975 25.4435 19.003 25.4432 19.0085H26.2281C26.461 19.0085 26.6496 19.1976 26.6496 19.4309C26.6496 20.6083 26.2696 21.6969 25.6296 22.5856H31.5433C31.7201 22.1965 31.7875 21.7532 31.7092 21.3008C31.535 20.2951 30.7039 19.5686 29.732 19.4833C29.7318 19.3596 29.7216 19.2343 29.6999 19.1084C29.492 17.909 28.3498 17.1061 27.1489 17.3152C26.5254 17.4239 26.0092 17.784 25.6853 18.2726C25.5803 18.1942 25.4679 18.1259 25.3503 18.0672C25.428 18.309 25.4704 18.5666 25.4704 18.834C25.4703 18.8856 25.4686 18.9378 25.465 18.992Z" fill="#368C0E"/>
<path d="M21.2244 17.0046C20.9893 15.9522 20.0986 15.1997 19.0607 15.1086C19.0604 14.9716 19.0493 14.8329 19.0251 14.6935C18.795 13.3657 17.5303 12.4767 16.2007 12.7082C15.5104 12.8283 14.9391 13.2271 14.5803 13.768C14.0609 13.38 13.3886 13.1977 12.6984 13.3178C11.3685 13.5493 10.4771 14.8136 10.7075 16.1414C10.7315 16.2808 10.7676 16.4152 10.8136 16.5441C9.83238 16.9968 9.23652 18.0649 9.42949 19.1784C9.61183 20.231 10.4446 21.007 11.4444 21.1684C11.3475 20.4971 11.4253 19.8043 11.6847 19.1499C11.6872 19.1435 11.691 19.1379 11.6959 19.1329C11.7007 19.1281 11.7064 19.1243 11.7128 19.1218C12.1782 18.9364 12.6675 18.8423 13.1667 18.8423C14.2168 18.8423 15.2045 19.2525 15.9478 19.9975C16.0016 20.0515 16.0532 20.1072 16.1034 20.1638C16.0618 19.8944 16.0403 19.6202 16.0403 19.3423C16.0403 19.1525 16.1943 18.998 16.3836 18.998H20.4745C20.471 18.9436 20.4684 18.8889 20.4684 18.8336C20.4684 18.1194 20.7573 17.4727 21.2244 17.0046Z" fill="#368C0E"/>
<path d="M16.004 19.9422C14.8704 18.8061 13.175 18.4555 11.6847 19.049C11.6683 19.0556 11.6537 19.0653 11.6414 19.0775C11.6292 19.0898 11.6194 19.1044 11.6129 19.1209C11.157 20.271 11.2614 21.542 11.8501 22.585H17.1689C16.6301 21.8674 16.2649 21.012 16.1367 20.0817C16.0937 20.0344 16.0496 19.9878 16.004 19.9422Z" fill="#89C947"/>
<path d="M14.3125 22.5849H15.9679L14.3406 20.954C14.112 20.725 13.7411 20.7243 13.512 20.953C13.2829 21.1815 13.2824 21.5525 13.511 21.7816L14.3125 22.5849Z" fill="#D5E962"/>
<path d="M25.542 18.9978C25.5456 18.9434 25.5481 18.8887 25.5481 18.8334C25.5481 17.4049 24.3927 16.2469 22.9675 16.2469C21.5424 16.2469 20.387 17.405 20.387 18.8334C20.387 18.8887 20.3895 18.9434 20.3931 18.9978H25.542Z" fill="#F7931E"/>
<path d="M25.6699 22.5857C26.3487 21.6813 26.7534 20.559 26.7534 19.3427C26.7534 19.1094 26.5649 18.9203 26.3319 18.9203H16.3845C16.1517 18.9203 15.9631 19.1094 15.9631 19.3427C15.9631 20.559 16.3679 21.6813 17.0468 22.5857H25.6699Z" fill="#EF5050"/>
<path d="M21.9641 22.5846V22.1793C21.9641 21.8557 21.7018 21.5934 21.3782 21.5934C21.0545 21.5934 20.7922 21.8557 20.7922 22.1793V22.5846H21.9641Z" fill="#C0272D"/>
<path d="M23.0885 22.5845H23.9997C24.1882 22.3546 24.1754 22.0148 23.9609 21.7998L23.3921 21.2296C23.1636 21.0006 22.7925 21 22.5635 21.2286C22.3343 21.4572 22.334 21.8281 22.5625 22.0572L23.0885 22.5845Z" fill="#C0272D"/>
<path d="M19.5764 22.5845L20.1023 22.0573C20.3309 21.8282 20.3305 21.4572 20.1015 21.2287C19.8724 21.0001 19.5014 21.0005 19.2728 21.2295L18.7039 21.7997C18.4894 22.0146 18.4765 22.3545 18.665 22.5844L19.5764 22.5845Z" fill="#C0272D"/>
<path d="M18.6756 21.0059H17.8711C17.5474 21.0059 17.2852 20.7435 17.2852 20.4199C17.2852 20.0963 17.5474 19.834 17.8711 19.834H18.6756C18.9993 19.834 19.2616 20.0963 19.2616 20.4199C19.2616 20.7435 18.9992 21.0059 18.6756 21.0059Z" fill="#C0272D"/>
<path d="M24.8439 21.0044H24.0393C23.7157 21.0044 23.4534 20.742 23.4534 20.4185C23.4534 20.0949 23.7157 19.8325 24.0393 19.8325H24.8439C25.1676 19.8325 25.4299 20.0949 25.4299 20.4185C25.4299 20.742 25.1675 21.0044 24.8439 21.0044Z" fill="#C0272D"/>
<path d="M7.26389 26.6251C7.27092 26.627 7.27803 26.628 7.28506 26.628C7.30193 26.628 7.3185 26.6226 7.33225 26.6122C7.35178 26.5974 7.36318 26.5744 7.36318 26.5499V25.5583C7.36318 25.2783 7.591 25.0504 7.871 25.0504C8.151 25.0504 8.37881 25.2783 8.37881 25.5583V26.5499C8.37881 26.5744 8.39022 26.5974 8.40975 26.6122C8.4235 26.6226 8.44006 26.628 8.45693 26.628C8.46404 26.628 8.47115 26.6271 8.47811 26.6251C8.88912 26.5093 9.37404 26.448 9.88021 26.448C11.3025 26.448 12.2579 26.909 12.2579 27.3397C12.2579 27.3953 12.241 27.4535 12.2075 27.5127C12.1964 27.5322 12.1943 27.5555 12.2016 27.5767C12.209 27.5979 12.225 27.6149 12.2457 27.6234C14.0667 28.374 15.3571 29.9663 15.6134 31.7787C15.6168 31.8022 15.6306 31.8229 15.651 31.8351C15.6632 31.8422 15.6769 31.8459 15.6908 31.8459C15.7001 31.8459 15.7095 31.8442 15.7185 31.8408L28.0525 27.1552C28.2912 27.0646 28.5416 27.0186 28.7969 27.0186C29.1547 27.0186 29.5085 27.1109 29.8203 27.2854C30.3625 27.5888 30.7382 28.1122 30.8511 28.7211L30.9585 29.3012C30.9632 29.3263 30.9797 29.3476 31.0029 29.3581C31.0133 29.3628 31.0243 29.3651 31.0353 29.3651C31.0491 29.3651 31.0629 29.3615 31.0751 29.3543L35.2219 26.9063C35.5783 25.6365 35.7589 24.32 35.7589 22.9677C35.7589 22.7441 35.5779 22.5629 35.3548 22.5629H7.1399C6.91678 22.5629 6.73584 22.7441 6.73584 22.9677C6.73584 24.2139 6.8899 25.4297 7.19264 26.6065C7.21631 26.6128 7.24068 26.6185 7.26389 26.6251Z" fill="#E6E9ED"/>
<path opacity="0.1" d="M7.26389 26.6251C7.27092 26.627 7.27803 26.628 7.28506 26.628C7.30193 26.628 7.3185 26.6226 7.33225 26.6122C7.35178 26.5974 7.36318 26.5744 7.36318 26.5499V25.5583C7.36318 25.2783 7.591 25.0504 7.871 25.0504C8.151 25.0504 8.37881 25.2783 8.37881 25.5583V26.5499C8.37881 26.5744 8.39022 26.5974 8.40975 26.6122C8.4235 26.6226 8.44006 26.628 8.45693 26.628C8.46404 26.628 8.47115 26.6271 8.47811 26.6251C8.8299 26.5259 9.23607 26.4672 9.66318 26.4522C9.38631 25.3235 9.24607 24.1594 9.24607 22.9677C9.24607 22.7441 9.42693 22.5629 9.65014 22.5629H7.1399C6.91678 22.5629 6.73584 22.7441 6.73584 22.9677C6.73584 24.2139 6.8899 25.4297 7.19264 26.6065C7.21631 26.6128 7.24068 26.6185 7.26389 26.6251Z" fill="black"/>
<path d="M7.87094 26.9042C8.03141 26.8141 8.23016 26.7356 8.45703 26.6716V25.5585C8.45703 25.2349 8.19477 24.9725 7.87109 24.9725C7.54742 24.9725 7.28516 25.2349 7.28516 25.5585V26.6716C7.51203 26.7355 7.71055 26.8141 7.87094 26.9042Z" fill="#89C947"/>
<path d="M12.6687 17.2336C12.6653 17.2336 12.6619 17.2335 12.6585 17.2335C12.3349 17.228 12.0771 16.9613 12.0826 16.6377C12.0998 15.6233 12.9318 14.809 13.9435 14.809C13.9535 14.809 13.9633 14.809 13.9733 14.8092C14.483 14.8171 14.9726 15.0375 15.3164 15.414C15.5346 15.6529 15.5178 16.0236 15.2789 16.2418C15.04 16.4601 14.6694 16.4433 14.4511 16.2043C14.3224 16.0633 14.1461 15.984 13.9549 15.981C13.5741 15.9748 13.2607 16.2786 13.2542 16.6576C13.2489 16.9777 12.9876 17.2335 12.6687 17.2336Z" fill="#89C947"/>
<path d="M15.9027 18.2418C15.835 18.2418 15.7662 18.23 15.6991 18.205C15.3956 18.0925 15.2409 17.7554 15.3534 17.4519C15.6802 16.5707 16.6636 16.1186 17.5458 16.4439C17.9845 16.606 18.3411 16.9457 18.524 17.3762C18.6505 17.674 18.5118 18.0181 18.2139 18.1446C17.9162 18.2713 17.5721 18.1325 17.4455 17.8346C17.3874 17.6981 17.2789 17.5946 17.14 17.5433C16.8629 17.4411 16.5546 17.583 16.4521 17.8594C16.3645 18.0957 16.1406 18.2418 15.9027 18.2418Z" fill="#89C947"/>
<path opacity="0.1" d="M4.3751 26.6499V10.5654C4.3751 9.33025 5.3833 8.3197 6.61564 8.3197H4.19611C2.96385 8.3197 1.95557 9.33025 1.95557 10.5654V28.5559C2.40455 28.1774 2.92213 27.8606 3.49635 27.624C3.51705 27.6155 3.53314 27.5985 3.54041 27.5773C3.54775 27.5561 3.54557 27.5328 3.53463 27.5134C3.50111 27.4542 3.48416 27.396 3.48416 27.3405C3.48424 27.0874 3.81463 26.8242 4.3751 26.6499Z" fill="black"/>
<path d="M13.857 37.7773L11.7407 37.7782H11.7399C10.7325 37.7781 9.86867 37.0622 9.68602 36.0757L9.66516 35.9635C9.48242 34.9768 10.0332 34.001 10.9748 33.6432L15.7024 31.8472C15.459 29.9 14.0868 28.2693 12.2026 27.5211C12.0198 27.8283 11.3902 28.0958 10.5705 28.192C10.5393 28.1957 10.5132 28.2178 10.5045 28.2481C10.4959 28.2784 10.5062 28.3109 10.5308 28.3306C10.9556 28.6704 11.2225 29.0287 11.2448 29.2891C11.2529 29.3835 11.2297 29.46 11.1737 29.5232C11.0741 29.6357 10.8782 29.6951 10.6073 29.6951C10.6073 29.6951 10.6073 29.6951 10.6072 29.6951C10.0797 29.6951 9.36641 29.4746 8.69906 29.1052C8.40516 28.9423 8.14367 28.7644 7.92156 28.5762C7.90695 28.5639 7.88898 28.5577 7.87109 28.5577C7.85312 28.5577 7.83516 28.5639 7.82062 28.5762C7.59836 28.7646 7.33687 28.9425 7.04328 29.1051C6.37594 29.4746 5.66258 29.6951 5.13508 29.6951C4.86406 29.6951 4.6682 29.6357 4.56859 29.5232C4.51266 29.46 4.48937 29.3836 4.4975 29.2892C4.51984 29.0288 4.78672 28.6705 5.21141 28.3306C5.23594 28.3109 5.24633 28.2784 5.23766 28.2481C5.22906 28.2178 5.20297 28.1957 5.17164 28.192C4.35172 28.0958 3.72211 27.8282 3.53961 27.5208C1.45758 28.3473 0 30.2512 0 32.4688C0 35.4443 2.62352 37.8563 5.85969 37.8563H13.9844C14.0721 37.8563 14.0042 37.8251 13.857 37.7773Z" fill="#EF5050"/>
<path opacity="0.1" d="M2.53516 32.4687C2.53516 30.7014 3.46078 29.1329 4.89047 28.1504C4.20969 28.0315 3.70055 27.7919 3.53953 27.5208C1.45758 28.3472 0 30.2511 0 32.4687C0 35.4442 2.62352 37.8562 5.85969 37.8562H8.39492C5.15875 37.8562 2.53516 35.4442 2.53516 32.4687Z" fill="black"/>
<path d="M12.3362 27.34C12.3362 26.8044 11.2367 26.3702 9.88037 26.3702C9.04959 26.3702 8.31537 26.5333 7.87092 26.7827C7.42678 26.5334 6.69264 26.3702 5.8617 26.3702C4.50545 26.3702 3.40576 26.8044 3.40576 27.34C3.40576 27.7795 4.14686 28.1506 5.16225 28.2697C4.54107 28.7668 4.25662 29.2892 4.50975 29.575C4.84514 29.9537 5.99639 29.7738 7.08076 29.1735C7.38521 29.0049 7.65201 28.8213 7.87076 28.6359C8.08975 28.8214 8.3567 29.0049 8.66092 29.1735C9.74537 29.7738 10.8965 29.9535 11.2319 29.575C11.4851 29.2892 11.2007 28.7668 10.5793 28.2697C11.5954 28.1506 12.3362 27.7795 12.3362 27.34Z" fill="#368C0E"/>
<path d="M39.9905 30.8097L39.8332 29.9609C39.7791 29.668 39.4965 29.4744 39.2023 29.5283L33.1296 30.6438L37.007 28.0519C37.1908 27.9291 37.2759 27.7121 37.2381 27.5061C37.2274 27.4489 37.2072 27.3928 37.1772 27.3395L36.7384 26.5623C36.6671 26.4357 36.5472 26.3431 36.4064 26.3056C36.2656 26.2681 36.1156 26.2885 35.9901 26.3627L30.946 29.3402L31.9003 34.4918L37.6857 35.5315C37.8299 35.5574 37.9786 35.524 38.0975 35.439C38.2165 35.3539 38.2961 35.2243 38.3175 35.0798L38.4483 34.2024C38.4574 34.142 38.4561 34.0823 38.4455 34.0255C38.4074 33.8191 38.2498 33.647 38.0342 33.5976L33.4832 32.5538L39.556 31.4381C39.8504 31.3841 40.0447 31.1028 39.9905 30.8097Z" fill="#89C947"/>
<path d="M9.60898 36.0895C9.79859 37.1133 10.6952 37.8563 11.7405 37.8559L30.0191 37.8488C30.6623 37.8486 31.2724 37.5637 31.6838 37.0712C32.0954 36.5788 32.2659 35.9297 32.1491 35.2995L30.928 28.7067C30.8112 28.0767 30.4194 27.5309 29.8586 27.217C29.2977 26.9031 28.6259 26.8538 28.0248 27.082L10.9469 33.5697C9.97015 33.9409 9.39859 34.9535 9.58812 35.9773L9.60898 36.0895Z" fill="#F7931E"/>
<g opacity="0.1">
<path opacity="0.1" d="M9.60898 36.0895C9.63804 36.2467 9.68562 36.3962 9.74601 36.5384C9.99796 36.0909 10.4027 35.7288 10.9135 35.5346L28.7486 28.7592C29.3763 28.5209 30.078 28.5724 30.6636 28.9002C30.7866 28.9691 30.9014 29.0492 31.0078 29.1381L30.928 28.7067C30.8112 28.0767 30.4194 27.5309 29.8586 27.217C29.2977 26.9031 28.6259 26.8538 28.0248 27.082L10.9469 33.5697C9.97015 33.9409 9.39859 34.9535 9.58812 35.9773L9.60898 36.0895Z" fill="black"/>
</g>
<path d="M25.7956 35.8034C25.7356 35.4854 25.4294 35.2763 25.1112 35.3361C24.7933 35.3961 24.5841 35.7025 24.6441 36.0204L24.9892 37.8513L26.1816 37.8508L25.7956 35.8034Z" fill="#FFC502"/>
<path d="M19.6417 35.2929C19.5843 34.9744 19.2798 34.7627 18.9611 34.8202C18.6426 34.8776 18.431 35.1824 18.4884 35.5008L18.9127 37.8537L20.1034 37.8533L19.6417 35.2929Z" fill="#FFC502"/>
<path d="M28.9715 35.1085C28.9108 34.7906 28.6031 34.5823 28.286 34.6431C27.9682 34.7039 27.7598 35.0109 27.8206 35.3287L28.3029 37.8499L29.496 37.8495L28.9715 35.1085Z" fill="#FFC502"/>
<path d="M13.7307 34.1977C13.7886 34.4739 14.0321 34.6635 14.3036 34.6635C14.3435 34.6635 14.3839 34.6594 14.4246 34.6508C14.7413 34.5844 14.944 34.2737 14.8776 33.957L14.5122 32.2162L13.4033 32.6374L13.7307 34.1977Z" fill="#FFC502"/>
<path d="M22.691 31.3903C22.7579 31.656 22.9966 31.8332 23.2588 31.8332C23.3061 31.8332 23.3543 31.8274 23.4023 31.8153C23.7161 31.7363 23.9064 31.4179 23.8275 31.104L23.2697 28.8892L22.1667 29.3082L22.691 31.3903Z" fill="#FFC502"/>
<path d="M9.62953 5.44652C9.62953 5.66785 9.44852 5.84895 9.22719 5.84895H4.31836C4.09703 5.84895 3.91602 5.66785 3.91602 5.44652V2.54598C3.91602 2.32465 4.09703 2.14355 4.31836 2.14355H9.22711C9.44844 2.14355 9.62945 2.32465 9.62945 2.54598L9.62953 5.44652Z" fill="#046699"/>
<g opacity="0.1">
<path opacity="0.1" d="M5.59438 5.44652V2.54598C5.59438 2.32465 5.77539 2.14355 5.9968 2.14355H4.31836C4.09703 2.14355 3.91602 2.32465 3.91602 2.54598V5.44652C3.91602 5.66785 4.09703 5.84895 4.31836 5.84895H5.9968C5.77547 5.84895 5.59438 5.66785 5.59438 5.44652Z" fill="black"/>
</g>
</g>
</svg>
