<svg width="40" height="40" viewBox="0 0 40 40" fill="none" xmlns="http://www.w3.org/2000/svg">
<g opacity="0.8">
<g clip-path="url(#clip0)">
<path d="M23.6255 3.36788L11.3655 0.0828764C10.0774 -0.26228 8.75339 0.502173 8.40824 1.79022L5.12316 14.0502C4.778 15.3383 5.54246 16.6623 6.8305 17.0075L19.0905 20.2925C20.3786 20.6376 21.7026 19.8732 22.0478 18.5851L25.3328 6.32514C25.6781 5.0371 24.9136 3.71311 23.6255 3.36788Z" fill="#FF5368"/>
<path d="M24.7077 3.99353C23.9027 4.21001 23.2317 4.83751 23.0005 5.70064L20.3924 15.434C20.0185 16.8295 18.5842 17.6576 17.1887 17.2837L7.45532 14.6756C6.59189 14.4442 5.71329 14.7117 5.12329 15.3006C5.33985 16.1056 5.9672 16.7767 6.8304 17.0079L19.0904 20.2929C20.3785 20.6381 21.7025 19.8736 22.0477 18.5856L25.3327 6.32556C25.5641 5.46244 25.2965 4.58353 24.7077 3.99353Z" fill="#C5324F"/>
<path d="M34.8775 33.6749L31.5925 21.4149C31.2473 20.1267 29.9232 19.3624 28.6352 19.7075L16.3752 22.9925C15.0871 23.3377 14.3227 24.6617 14.6678 25.9498L17.9529 38.2098C18.2981 39.4979 19.6221 40.2623 20.9102 39.9171L33.1702 36.632C34.4581 36.287 35.2226 34.963 34.8775 33.6749Z" fill="#FF5368"/>
<path d="M31.5923 21.4147C31.3609 20.5515 30.6899 19.9242 29.8849 19.7076C29.2961 20.2977 29.0286 21.1765 29.2599 22.0397L31.868 31.773C32.2419 33.1684 31.4137 34.6027 30.0183 34.9767L20.2849 37.5848C19.4218 37.8161 18.7944 38.4871 18.5779 39.2921C19.168 39.8809 20.0468 40.1484 20.9099 39.9172L33.1699 36.6321C34.458 36.2869 35.2224 34.963 34.8773 33.6748L31.5923 21.4147Z" fill="#C5324F"/>
<path d="M22.2101 36.0593C23.2103 36.0593 24.021 35.2485 24.021 34.2483C24.021 33.2482 23.2103 32.4374 22.2101 32.4374C21.21 32.4374 20.3992 33.2482 20.3992 34.2483C20.3992 35.2485 21.21 36.0593 22.2101 36.0593Z" fill="#FFF9EB"/>
<path d="M24.7711 31.6238C25.7713 31.6238 26.5821 30.813 26.5821 29.8129C26.5821 28.8127 25.7713 28.002 24.7711 28.002C23.771 28.002 22.9602 28.8127 22.9602 29.8129C22.9602 30.813 23.771 31.6238 24.7711 31.6238Z" fill="#FFF9EB"/>
<path d="M27.3322 27.1872C28.3323 27.1872 29.1431 26.3764 29.1431 25.3762C29.1431 24.3761 28.3323 23.5653 27.3322 23.5653C26.332 23.5653 25.5212 24.3761 25.5212 25.3762C25.5212 26.3764 26.332 27.1872 27.3322 27.1872Z" fill="#FFF9EB"/>
<path d="M17.7863 16.4358C18.7864 16.4358 19.5972 15.6251 19.5972 14.6249C19.5972 13.6247 18.7864 12.814 17.7863 12.814C16.7861 12.814 15.9753 13.6247 15.9753 14.6249C15.9753 15.6251 16.7861 16.4358 17.7863 16.4358Z" fill="#FFF9EB"/>
<path d="M10.7904 14.5602C11.7906 14.5602 12.6014 13.7494 12.6014 12.7493C12.6014 11.7491 11.7906 10.9384 10.7904 10.9384C9.79028 10.9384 8.97949 11.7491 8.97949 12.7493C8.97949 13.7494 9.79028 14.5602 10.7904 14.5602Z" fill="#FFF9EB"/>
<path d="M19.6625 9.43816C20.6627 9.43816 21.4734 8.62737 21.4734 7.62722C21.4734 6.62707 20.6627 5.81628 19.6625 5.81628C18.6623 5.81628 17.8516 6.62707 17.8516 7.62722C17.8516 8.62737 18.6623 9.43816 19.6625 9.43816Z" fill="#FFF9EB"/>
<path d="M12.6642 7.56377C13.6644 7.56377 14.4751 6.75299 14.4751 5.75283C14.4751 4.75268 13.6644 3.94189 12.6642 3.94189C11.6641 3.94189 10.8533 4.75268 10.8533 5.75283C10.8533 6.75299 11.6641 7.56377 12.6642 7.56377Z" fill="#FFF9EB"/>
</g>
</g>
<defs>
<clipPath id="clip0">
<rect width="40" height="40" fill="white"/>
</clipPath>
</defs>
</svg>
