<svg width="40" height="40" viewBox="0 0 40 40" fill="none" xmlns="http://www.w3.org/2000/svg">
<g opacity="0.8">
<path d="M40 36.5728H0V39.9894H40V36.5728Z" fill="#ACB3BA"/>
<path d="M19.9988 2.07263L3.66541 19.906V39.9894H36.3321V19.906L19.9988 2.07263Z" fill="#FF7058"/>
<path opacity="0.1" d="M3.66541 19.906V22.906C3.99876 22.7394 4.24876 22.5726 4.58205 22.3226L19.9988 6.73935L35.4988 22.2394C35.7488 22.4894 36.0821 22.7394 36.4154 22.8227V19.8227L19.9988 2.07263L3.66541 19.906Z" fill="#231F20"/>
<path d="M39.3336 18.4061L21.5002 0.572754C20.7502 -0.177246 19.3336 -0.177246 18.5836 0.572754L0.66689 18.4061C-0.16647 19.2395 -0.16647 20.5728 0.66689 21.3228C1.08353 21.7394 1.58353 21.9061 2.16689 21.9061C2.66689 21.9061 3.25025 21.7395 3.66689 21.3228L20.0002 4.98947L36.3336 21.3228C37.167 22.1562 38.5002 22.1562 39.2502 21.3228C40.0836 20.4895 40.0836 19.2395 39.3336 18.4061Z" fill="#40596B"/>
<path d="M10.9997 13.4061V3.65611C10.9997 2.48947 10.0831 1.57275 8.91637 1.57275C7.74973 1.57275 6.83301 2.48939 6.83301 3.65611V13.4061H10.9997Z" fill="#40596B"/>
<path d="M19.9998 35.1564C24.9703 35.1564 28.9998 31.1269 28.9998 26.1564C28.9998 21.1858 24.9703 17.1564 19.9998 17.1564C15.0292 17.1564 10.9998 21.1858 10.9998 26.1564C10.9998 31.1269 15.0292 35.1564 19.9998 35.1564Z" fill="#FFD15C"/>
<path d="M20.0007 33.4892C24.0508 33.4892 27.3341 30.206 27.3341 26.1559C27.3341 22.1058 24.0508 18.8225 20.0007 18.8225C15.9506 18.8225 12.6674 22.1058 12.6674 26.1559C12.6674 30.206 15.9506 33.4892 20.0007 33.4892Z" fill="#F8B64C"/>
<path d="M19.5836 29.9898C18.4169 29.9065 17.5002 29.4065 16.9169 28.8231L17.8335 27.5731C18.2502 27.9897 18.8335 28.4065 19.6669 28.5731V26.8231C18.5002 26.5731 17.2502 26.0731 17.2502 24.5731C17.2502 23.4065 18.1669 22.4897 19.6669 22.3231V21.2397H20.7502V22.3231C21.6669 22.4065 22.4169 22.7397 23.0836 23.3231L22.1669 24.4897C21.7502 24.1565 21.2502 23.9065 20.7502 23.7398V25.3232C21.9169 25.6565 23.2502 26.0732 23.2502 27.6565C23.2502 28.9065 22.4169 29.9065 20.7502 30.0732V31.0732H19.6669V29.9898H19.5836ZM19.5836 25.0731V23.7397C19.0836 23.8231 18.8336 24.0731 18.8336 24.4897C18.7502 24.7398 19.0836 24.9065 19.5836 25.0731ZM20.6669 27.0731V28.5731C21.2502 28.4898 21.5002 28.1565 21.5002 27.7398C21.5002 27.4065 21.1669 27.2398 20.6669 27.0731Z" fill="#FFD15C"/>
</g>
</svg>
