<svg width="40" height="40" viewBox="0 0 40 40" fill="none" xmlns="http://www.w3.org/2000/svg">
<g opacity="0.8">
<path d="M40 24.6875L37.9376 25.8124L40 27.0312V28.2031C40 30.1483 38.4299 31.7188 36.4844 31.7188H3.51562C1.57013 31.7188 0 30.1483 0 28.2031V24.6875L1.26556 23.5156L0 22.3438V20L1.31256 17.117L0 10.625V9.45312C0 7.50763 1.57013 5.9375 3.51562 5.9375H32.6874C34.0234 5.9375 35.242 6.68762 35.8279 7.88269L37.211 10.625L33.2031 17.4219L40 22.3438V24.6875Z" fill="#E63950"/>
<path d="M8.20312 34.0625C6.26465 34.0625 4.6875 32.4854 4.6875 30.5469C4.6875 28.6084 6.26465 27.0312 8.20312 27.0312C10.1416 27.0312 11.7188 28.6084 11.7188 30.5469C11.7188 32.4854 10.1416 34.0625 8.20312 34.0625Z" fill="#4A696F"/>
<path d="M8.20312 31.7188C7.55646 31.7188 7.03125 31.1935 7.03125 30.5469C7.03125 29.9002 7.55646 29.375 8.20312 29.375C8.84979 29.375 9.375 29.9002 9.375 30.5469C9.375 31.1935 8.84979 31.7188 8.20312 31.7188Z" fill="#DEECF1"/>
<path d="M40 24.6875L37.9376 25.8124L40 27.0312V28.2031C40 30.1483 38.4299 31.7188 36.4844 31.7188H15.2344V5.9375H32.6874C34.0234 5.9375 35.242 6.68762 35.8279 7.88269L37.211 10.625L33.2031 17.4219L40 22.3438V24.6875Z" fill="#CC2E43"/>
<path d="M31.7969 34.0625C29.8584 34.0625 28.2812 32.4854 28.2812 30.5469C28.2812 28.6084 29.8584 27.0312 31.7969 27.0312C33.7354 27.0312 35.3125 28.6084 35.3125 30.5469C35.3125 32.4854 33.7354 34.0625 31.7969 34.0625Z" fill="#384949"/>
<path d="M15.2344 27.0312C13.2889 27.0312 11.7188 28.6014 11.7188 30.5469C11.7188 32.4921 13.2889 34.0625 15.2344 34.0625C17.1799 34.0625 18.75 32.4921 18.75 30.5469C18.75 28.6014 17.1799 27.0312 15.2344 27.0312Z" fill="#4A696F"/>
<path d="M18.75 30.5469C18.75 32.4921 17.1799 34.0625 15.2344 34.0625V27.0312C17.1799 27.0312 18.75 28.6014 18.75 30.5469Z" fill="#384949"/>
<path d="M16.4062 30.5469C16.4062 31.203 15.8908 31.7188 15.2344 31.7188C14.5779 31.7188 14.0625 31.203 14.0625 30.5469C14.0625 29.8904 14.5779 29.375 15.2344 29.375C15.8908 29.375 16.4062 29.8904 16.4062 30.5469Z" fill="#DEECF1"/>
<path d="M31.7969 31.7188C31.1502 31.7188 30.625 31.1935 30.625 30.5469C30.625 29.9002 31.1502 29.375 31.7969 29.375C32.4435 29.375 32.9688 29.9002 32.9688 30.5469C32.9688 31.1935 32.4435 31.7188 31.7969 31.7188Z" fill="#C6E2E7"/>
<path d="M16.4062 30.5469C16.4062 31.203 15.8908 31.7188 15.2344 31.7188V29.375C15.8908 29.375 16.4062 29.8904 16.4062 30.5469Z" fill="#C6E2E7"/>
<path d="M40 24.6875V27.0312H36.4844C35.8279 27.0312 35.3125 26.5155 35.3125 25.8594C35.3125 25.2029 35.8279 24.6875 36.4844 24.6875H40Z" fill="#C6E2E7"/>
<path d="M25.7812 23.5156C25.7812 24.1718 25.2658 24.6875 24.6094 24.6875H0V22.3438H24.6094C25.2658 22.3438 25.7812 22.8592 25.7812 23.5156Z" fill="#FFA78F"/>
<path d="M25.7812 23.5156C25.7812 24.1718 25.2658 24.6875 24.6094 24.6875H15.2344V22.3438H24.6094C25.2658 22.3438 25.7812 22.8592 25.7812 23.5156Z" fill="#F89580"/>
<path d="M40 20V22.3438H31.3281L28.9844 20H0V10.625H37.211L38.3829 12.9688L37.8906 17.0233L40 20Z" fill="#CC2E43"/>
<path d="M40 20V22.3438H31.3281L28.9844 20H15.2344V10.625H37.211L38.3829 12.9688L37.8906 17.0233L40 20Z" fill="#AE2538"/>
<path d="M39.8828 15.9686C39.953 16.1328 40 16.2967 40 16.4844V20H32.2891L30.625 18.3359V12.9688H38.3829L39.8828 15.9686Z" fill="#76E2F8"/>
<path d="M23.4375 12.9688H28.2812V17.6562H23.4375V12.9688Z" fill="#76E2F8"/>
<path d="M16.4062 12.9688H21.0938V17.6562H16.4062V12.9688Z" fill="#76E2F8"/>
<path d="M9.375 12.9688H14.0625V17.6562H9.375V12.9688Z" fill="#A8EBFA"/>
<path d="M2.34375 12.9688H7.03125V17.6562H2.34375V12.9688Z" fill="#A8EBFA"/>
</g>
</svg>
